<svg id="Слой_2" data-name="Слой 2" xmlns="http://www.w3.org/2000/svg" viewBox="0 0 284 43"><title>logo</title><rect width="9" height="42"/><rect x="45" width="35" height="9"/><rect x="58" y="17" width="9" height="26"/><rect width="36" height="9"/><rect y="17" width="36" height="9"/><rect y="35" width="36" height="8"/><rect x="89" width="9" height="43"/><rect x="89" width="27" height="8"/><rect x="116" y="9" width="9" height="34"/><rect x="133" width="8" height="43"/><rect x="133" width="35" height="8"/><rect x="160" width="9" height="43"/><rect x="133" y="35" width="36" height="8"/><rect x="177" width="9" height="43"/><rect x="177" width="27" height="8"/><rect x="204" y="9" width="9" height="25"/><rect x="177" y="35" width="27" height="8"/><rect x="221" width="9" height="43"/><rect x="239" y="9" width="9" height="34"/><rect x="248" width="26" height="8"/><rect x="257" y="6" width="9" height="28"/><rect x="275" y="9" width="9" height="34"/></svg>