<svg id="Capa_1" data-name="Capa 1" xmlns="http://www.w3.org/2000/svg" viewBox="0 0 391.4 489"><title>cart</title><path d="M391.3,422.7l-28-315.3a13.48,13.48,0,0,0-13.4-12.3H292.3a96.61,96.61,0,0,0-193.2,0H41.5a13.41,13.41,0,0,0-13.4,12.3L.1,422.7c0,.4-.1.8-.1,1.2C0,459.8,32.9,489,73.4,489H318c40.5,0,73.4-29.2,73.4-65.1A4.87,4.87,0,0,0,391.3,422.7ZM195.7,27a69.67,69.67,0,0,1,69.6,68.1H126.1A69.67,69.67,0,0,1,195.7,27ZM318,462H73.4c-25.4,0-46-16.8-46.4-37.5L53.8,122.2H99v41a13.5,13.5,0,0,0,27,0v-41H265.3v41a13.5,13.5,0,0,0,27,0v-41h45.2l26.9,302.3C364,445.2,343.3,462,318,462Z" transform="translate(0 0)"/></svg>