<?xml version="1.0" encoding="utf-8"?>
<!-- Generator: Adobe Illustrator 23.0.3, SVG Export Plug-In . SVG Version: 6.00 Build 0)  -->
<svg version="1.1" xmlns="http://www.w3.org/2000/svg" xmlns:xlink="http://www.w3.org/1999/xlink" x="0px" y="0px"
	 viewBox="0 0 154.5 121.1" style="enable-background:new 0 0 154.5 121.1;" xml:space="preserve">
<style type="text/css">
	.st0{fill:none;stroke:#FFFFFF;stroke-width:2;stroke-miterlimit:10;}
	.st1{fill:none;stroke:#FFFFFF;stroke-width:2;stroke-linecap:round;stroke-miterlimit:10;}
</style>
<g id="Capa_1">
	<polygon class="st0" points="51.6,69.2 17.4,69.2 17.4,52.1 51.5,52.1 	"/>
	<path class="st0" d="M17.4,101.2V86.3h34.1v14.9c0,0.7,0.1,1.5,0.2,2.2H19.6C18.4,103.3,17.4,102.4,17.4,101.2
		C17.4,101.1,17.4,101.1,17.4,101.2L17.4,101.2z"/>
	<path class="st0" d="M136.9,69.2h-34.1V54.3c0-1.2,1-2.2,2.2-2.2c0,0,0,0,0,0h29.8c0.7,0,1.5-0.1,2.2-0.2V69.2z"/>
	<path class="st0" d="M134.7,103.3h-32.2c0.1-0.7,0.2-1.4,0.2-2.2V86.3h34.1v14.9C136.9,102.3,135.9,103.3,134.7,103.3
		C134.7,103.3,134.7,103.3,134.7,103.3z"/>
	<path class="st0" d="M134.7,18c1.2,0,2.2,1,2.2,2.2v12.8c0,1.2-1,2.2-2.2,2.2h-29.8c-10.6,0-19.2,8.6-19.3,19.2v46.8
		c0,1.2-1,2.2-2.2,2.2c0,0,0,0,0,0H70.8c-1.2,0-2.2-1-2.2-2.2c0,0,0,0,0,0v-81c0-1.2,1-2.2,2.2-2.2L134.7,18z"/>
	<path class="st0" d="M19.6,18h32.2c-0.1,0.7-0.2,1.4-0.2,2.2v14.9H17.4V20.2C17.4,19,18.4,18,19.6,18z"/>
</g>
<g id="Слой_2">
	<path class="st1" d="M3.4,0.9h147.7c1.5,0,2.7,1.2,2.7,2.7v114c0,1.5-1.2,2.7-2.7,2.7H3.4c-1.5,0-2.7-1.2-2.7-2.7V3.7
		C0.7,2.1,1.9,0.9,3.4,0.9z"/>
</g>
</svg>
