<?xml version="1.0" encoding="utf-8"?>
<!-- Generator: Adobe Illustrator 22.1.0, SVG Export Plug-In . SVG Version: 6.00 Build 0)  -->
<svg version="1.1" xmlns="http://www.w3.org/2000/svg" xmlns:xlink="http://www.w3.org/1999/xlink" x="0px" y="0px"
	 viewBox="0 0 873 177.8" style="enable-background:new 0 0 873 177.8;" xml:space="preserve">
<style type="text/css">
	.st0{fill:#CDCDCD;}
</style>
<g id="Слой_3">
	<g>
		<g>
			<g>
				<g>
					<path class="st0" d="M209.3,11l-25.7,159.9h41.1L250.3,11C250.3,11,209.3,11,209.3,11z M333.2,76.2
						C318.8,69.1,310,64.3,310,57.1c0.2-6.6,7.4-13.3,23.7-13.3c13.3-0.3,23.2,2.8,30.6,5.9l3.7,1.7l5.6-33.5
						c-8.1-3.1-21-6.6-36.9-6.6c-40.6,0-69.1,21.1-69.3,51.2c-0.3,22.3,20.4,34.6,36,42c15.9,7.6,21.3,12.5,21.3,19.3
						c-0.2,10.4-12.8,15.2-24.7,15.2c-16.4,0-25.2-2.5-38.5-8.2l-5.4-2.5l-5.7,34.8c9.6,4.3,27.4,8.1,45.8,8.3
						c43.1,0,71.2-20.8,71.5-52.9C367.8,100.7,356.8,87.2,333.2,76.2z M478.9,11.5h-31.8c-9.8,0-17.2,2.8-21.5,12.9l-61,146.5h43.1
						l11.9-31.7h48.2l6.2,31.9h38L478.9,11.5z M431.6,107.2c0.8,0.1,16.5-51.8,16.5-51.8l12.5,51.8
						C460.6,107.2,439.7,107.2,431.6,107.2z M149.3,11L109,119.7l-4.4-21.4c-7.4-24.7-30.8-51.6-56.8-64.9l36.8,137.5h43.5
						l64.6-159.7L149.3,11L149.3,11z"/>
				</g>
			</g>
			<path class="st0" d="M91.1,31.7C88,19.5,78,11.2,64.4,11.1H0.7L0,14c49.7,12.3,91.4,50,105,85.4L91.1,31.7z"/>
		</g>
	</g>
</g>
<g id="Слой_4">
	<g>
		<path class="st0" d="M719.8,150.8c10.6,0.2,19.9,0.3,19.7,0.2c3.3-2.9,4.6-5,7.4-8.3l-34.5-0.5c-2.1-2.8-4.1-5.8-5.9-8.9l46.6,0.1
			c1.9-3,2.5-5.7,4-9h-55.2c-1.3-2.9-2.4-5.8-3.3-8.9h62.3c0.1-0.4,0.2-0.8,0.4-1.2c0.8-2.5,1.4-5.1,1.9-7.7h-66.9
			c-0.6-2.9-1-5.9-1.3-8.9h69.6c0.3-2.9,0.4-5.9,0.4-8.9c0,0,0,0,0,0h-70.5c0-3,0.2-6,0.4-8.9h69.6c-0.3-3-0.7-6-1.3-8.9h-66.9
			c0.6-3.2,1.5-6.4,2.5-9.4h62c-0.3-0.9-0.6-1.8-0.9-2.6c-0.8-1.9-1.7-3.6-2.7-5.7H702c1.3-3.1,2.9-6,4.6-8.9l46.6,0.1
			c-2.1-3.3-3.4-5.9-5.9-8.9l-34.7-0.1c2.4-3.2,5-6.3,7.8-9.2l18.6-0.3C723,10,700.7,0,676.2,0c-49.1,0-88.8,39.8-88.8,88.9
			s39.8,88.9,88.8,88.9c20.2,0,38.7-6.7,53.6-18C726.2,157,722.9,154,719.8,150.8z"/>
		<path class="st0" d="M872.1,87.9C871.5,39.4,832,0.4,783.4,0.4c-19.9,0-38.2,6.6-53,17.7l0.1,0c2.9,2.8,6.1,4.8,8.6,8l-0.1,0
			c9.2,9.2,16.3,20.4,20.8,32.9c0.4,0.8,0.7,1.7,1,2.6h-0.1c1,3.1,1.8,6.2,2.5,9.4h0.3c0.7,3.1,1.2,6,1.5,8.9h-0.5
			c0.3,2.9,0.4,5.9,0.4,8.9h0.5c0,3.1-0.2,6.1-0.5,8.9h-0.4c-0.3,3-0.7,6-1.3,8.9h0.2c-0.6,2.5-1.3,5.1-2.2,7.7
			c-5.5,18.3-16.6,34.1-31.5,45.3c14.3,10.9,31.9,17.5,51,18.1C831.1,179.2,872.8,138.1,872.1,87.9z"/>
	</g>
</g>
</svg>
