<?xml version="1.0" encoding="utf-8"?>
<!-- Generator: Adobe Illustrator 22.1.0, SVG Export Plug-In . SVG Version: 6.00 Build 0)  -->
<svg version="1.1" xmlns="http://www.w3.org/2000/svg" xmlns:xlink="http://www.w3.org/1999/xlink" x="0px" y="0px"
	 viewBox="0 0 873 177.8" style="enable-background:new 0 0 873 177.8;" xml:space="preserve">
<style type="text/css">
	.st0{fill:#2394BC;}
	.st1{fill:#E2574C;}
	.st2{fill:#F4B459;}
</style>
<g id="Layer_1">
	<g>
		<g>
			<g>
				<g>
					<path class="st0" d="M209.3,10.9l-25.7,159.9h41.1l25.7-159.9C250.3,10.9,209.3,10.9,209.3,10.9z M333.2,76
						C318.8,68.9,310,64.2,310,56.9c0.2-6.6,7.4-13.3,23.7-13.3c13.3-0.3,23.2,2.8,30.6,5.9l3.7,1.7l5.6-33.5
						c-8.1-3.1-21-6.6-36.9-6.6c-40.6,0-69.1,21.1-69.3,51.2c-0.3,22.3,20.4,34.6,36,42c15.9,7.6,21.3,12.5,21.3,19.3
						c-0.2,10.4-12.8,15.2-24.7,15.2c-16.4,0-25.2-2.5-38.5-8.2l-5.4-2.5l-5.7,34.8c9.6,4.3,27.4,8.1,45.8,8.3
						c43.1,0,71.2-20.8,71.5-52.9C367.8,100.6,356.8,87.1,333.2,76z M478.9,11.4h-31.8c-9.8,0-17.2,2.8-21.5,12.9l-61,146.5h43.1
						l11.9-31.7h48.2l6.2,31.9h38L478.9,11.4z M431.6,107c0.8,0.1,16.5-51.8,16.5-51.8l12.5,51.8C460.6,107,439.7,107,431.6,107z
						 M149.3,10.9L109,119.5l-4.4-21.4c-7.4-24.7-30.8-51.6-56.8-64.9l36.8,137.5h43.5l64.6-159.7L149.3,10.9L149.3,10.9z"/>
				</g>
			</g>
			<path class="st0" d="M91.1,31.5C88,19.3,78,11.1,64.4,10.9H0.7l-0.7,3c49.7,12.3,91.4,50,105,85.4L91.1,31.5z"/>
		</g>
	</g>
</g>
<g id="Слой_2">
	<g>
		<g>
			<path class="st1" d="M767.2,89.2c0,48.7-39.4,88.1-88.1,88.1S591,137.9,591,89.2s39.4-88.1,88.1-88.1S767.2,40.5,767.2,89.2z"/>
			<path class="st2" d="M784.9,1.1c-19.8,0-37.9,6.6-52.6,17.6l0.1,0c2.9,2.8,6.1,4.8,8.5,8l-18.3,0.3c-2.9,2.9-5.5,6.1-8,9.3h32.3
				c2.5,3,4.7,5.5,6.8,8.8h-45c-1.6,2.8-3.2,5.8-4.5,8.8h54.6c1.4,3,2.7,5.3,3.8,8.5H701c-1,3-1.8,6.2-2.4,9.3h66.7
				c0.7,3,1.2,5.9,1.5,8.7h-69.5c-0.3,2.9-0.4,5.8-0.4,8.8h70.4c0,3.1-0.2,6-0.5,8.8h-69.4c0.3,3,0.7,5.9,1.3,8.8h66.5
				c-0.7,2.9-1.5,5.7-2.5,8.7h-61.8c0.9,3,2.1,5.9,3.3,8.8h54.7c-1.5,3.2-3.2,5.8-5.1,8.8h-45.1c1.8,3.1,3.7,6,5.9,8.8l32.5,0.5
				c-2.8,3.3-6.3,5.3-9.6,8.2c0.2,0.1-5.2,0-15.7-0.2c16,16.5,38.4,26.8,63.3,26.8c48.7,0,88.1-39.5,88.1-88.1S833.6,1.1,784.9,1.1z
				"/>
		</g>
	</g>
</g>
</svg>
